<svg width="476" height="490" viewBox="0 0 476 490" fill="none" xmlns="http://www.w3.org/2000/svg">
<path d="M236.881 447.859C357.669 447.859 455.588 349.941 455.588 229.152C455.588 108.364 357.669 10.4458 236.881 10.4458C116.093 10.4458 18.1743 108.364 18.1743 229.152C18.1743 349.941 116.093 447.859 236.881 447.859Z" fill="url(#paint0_linear_10_563)"/>
<path d="M46.644 182.642L45.5027 182.445C45.5606 182.109 51.5743 148.581 74.8239 122.87L75.6813 123.646C52.6577 149.109 46.7019 182.311 46.644 182.642Z" fill="white"/>
<path d="M78.3346 101.619L77.3787 100.97C77.5641 100.698 96.173 73.7056 126.027 60.5369L126.496 61.5971C96.9551 74.6268 78.52 101.352 78.3346 101.619Z" fill="white"/>
<path d="M442.819 225.184H441.66C441.66 183.604 422.791 145.917 422.599 145.54L423.631 145.019C423.822 145.395 442.819 183.32 442.819 225.184Z" fill="white"/>
<path d="M420.259 203.504C419.366 186.941 413.973 173.001 413.92 172.862L414.998 172.439C415.05 172.578 420.508 186.686 421.417 203.441L420.259 203.504Z" fill="white"/>
<path d="M10.2952 174.763L9.15967 174.519C9.22919 174.183 16.5465 140.83 42.1887 107.123L43.1099 107.824C17.6241 141.328 10.3647 174.432 10.2952 174.763Z" fill="black"/>
<path d="M46.5166 81.5501L45.6301 80.8085C45.6996 80.7274 52.4955 72.628 61.1626 64.4475L61.9564 65.2876C53.3355 73.4217 46.5803 81.469 46.5166 81.5501Z" fill="black"/>
<path d="M75.1714 65.247L74.2908 64.4939C74.3893 64.378 84.3194 52.9068 103.27 39.9756C120.749 28.0466 149.705 12.3925 188.412 5.5271L188.615 6.66843C150.111 13.499 121.305 29.0721 103.925 40.9315C85.0957 53.7758 75.2641 65.1312 75.1714 65.247Z" fill="black"/>
<path d="M455.032 154.613C445.281 114.869 414.344 80.5594 414.031 80.2176L414.888 79.4354C415.201 79.7772 446.336 114.313 456.156 154.334L455.032 154.613Z" fill="black"/>
<path d="M463.624 212.473C462.471 198.018 459.713 185.365 457.604 177.294L458.728 176.999C460.848 185.116 463.624 197.838 464.782 212.38L463.624 212.473Z" fill="black"/>
<path d="M469.909 267.106L468.78 266.845C469.776 262.535 470.645 257.859 471.364 252.952L472.511 253.12C471.787 258.056 470.906 262.761 469.909 267.106Z" fill="black"/>
<path d="M474.654 231.435L473.495 231.371C474.405 214.686 473.6 198.597 471.485 191.338L472.597 191.013C474.747 198.389 475.57 214.634 474.654 231.435Z" fill="black"/>
<path d="M456.422 284.22L455.321 283.867C457.355 277.54 459.081 268.734 460.454 257.709L461.601 257.854C460.222 268.948 458.479 277.818 456.422 284.22Z" fill="black"/>
<path d="M462.644 248.173L461.491 248.068C461.914 243.48 462.1 240.432 462.1 240.398L463.259 240.467C463.253 240.496 463.067 243.573 462.644 248.173Z" fill="black"/>
<path d="M345.325 29.8369C314.961 10.5096 264.105 3.87016 263.595 3.80643L263.74 2.6593C263.868 2.67668 276.747 4.33364 293.229 8.37175C308.455 12.1028 329.955 18.6843 345.951 28.8635L345.325 29.8369Z" fill="black"/>
<path d="M319.995 9.03215C311.85 5.44015 292.922 1.1703 292.731 1.12974L292.986 0C293.177 0.0405549 312.215 4.33358 320.465 7.97773L319.995 9.03215Z" fill="black"/>
<path d="M73.5027 396.343C71.0463 394.402 68.6188 392.368 66.2898 390.306L67.0603 389.437C69.3777 391.488 71.7878 393.51 74.2269 395.433L73.5027 396.343Z" fill="black"/>
<path d="M53.9263 378.151C20.7234 341.941 14.3621 302.429 14.2983 302.035L15.4455 301.862C15.5034 302.256 21.8242 341.432 54.7779 377.369L53.9263 378.151Z" fill="black"/>
<path d="M63.0282 375.156C51.1398 365.353 40.0278 342.984 39.9177 342.758L40.9548 342.248C41.0648 342.468 52.0726 364.617 63.764 374.263L63.0282 375.156Z" fill="black"/>
<path d="M178.181 449.545C161.281 446.312 144.584 440.565 128.553 432.46L129.075 431.423C145.013 439.476 161.606 445.188 178.401 448.404L178.181 449.545Z" fill="black"/>
<path d="M108.079 420.519C99.7708 414.957 95.1186 410.832 95.0723 410.792L95.8428 409.929C95.8891 409.969 100.489 414.048 108.722 419.558L108.079 420.519Z" fill="black"/>
<path d="M247.373 461.717L247.315 460.559C251.603 460.35 255.797 460.026 259.777 459.597L259.905 460.75C255.902 461.184 251.684 461.509 247.373 461.717Z" fill="black"/>
<path d="M232.142 461.984C205.619 461.694 183.395 457.72 183.169 457.679L183.378 456.538C183.598 456.578 205.735 460.541 232.154 460.825L232.142 461.984Z" fill="black"/>
<path d="M105.379 385.972C68.8333 360.347 55.3691 319.7 55.2358 319.294L56.3366 318.935C56.4699 319.341 69.824 359.629 106.045 385.022L105.379 385.972Z" fill="white"/>
<path d="M185.284 430.31C156.6 425.27 127.881 406.07 127.597 405.873L128.246 404.911C128.53 405.103 157.052 424.169 185.487 429.163L185.284 430.31Z" fill="white"/>
<path d="M138.095 395.485C130.459 393.093 121.242 384.547 120.854 384.188L121.642 383.342C121.734 383.429 131.056 392.067 138.437 394.385L138.095 395.485Z" fill="white"/>
<path d="M275.333 41.8004C269.51 45.3461 244.187 60.166 225.908 74.1053C223 76.3242 220.833 79.3658 219.692 82.8419C217.322 90.0781 215.196 98.1138 214.593 100.443C214.454 100.982 214.524 101.555 214.802 102.036C216.511 105.049 225.879 115.419 276.92 133.472L288.901 107.557C288.901 107.557 281.335 59.3375 279.012 43.2314C278.774 41.615 276.914 40.8387 275.333 41.8004Z" fill="white"/>
<path d="M390.613 331.617L327.782 338.998C317.591 340.197 308.681 346.437 304.075 355.608L275.953 412.113C274.754 414.5 272.089 415.769 269.481 415.195L259.488 412.993C252.477 411.447 245.473 415.606 243.474 422.501L241.91 427.906C241.041 430.901 242.408 434.088 245.177 435.525L291.312 459.435C294.371 461.016 298.131 459.956 299.909 457.007L346.275 381.5L410.357 377.462L390.613 331.617Z" fill="#274D76"/>
<path d="M355.052 283.368L359.635 271.874L397.542 273.908L383.771 325.951L355.052 283.368Z" fill="#274D76"/>
<path d="M350.267 255.588C350.267 255.588 354.432 244.807 354.369 238.949C354.288 231.157 355.133 215.3 350.168 216.047C347.144 216.499 346.24 223.834 345.87 226.986C345.725 228.231 345.244 229.425 344.41 230.363C343.222 231.702 341.536 232.217 340.65 226.151C339.207 216.268 339.52 197.247 333.778 200.729C330.87 202.496 332.429 219.767 330.783 219.002C329.138 218.237 329.341 192.155 322.342 194.999C320.03 195.938 320.552 208.4 321.027 215.37C321.056 215.758 320.488 215.839 320.401 215.456C319.457 211.245 318.008 205.109 316.85 201.511C315.604 197.636 312.707 199.663 312.707 202.491C312.707 208.574 313.738 221.383 313.738 221.383L350.267 255.588Z" fill="#274D76"/>
<path d="M447.569 290.194L457.998 308.154L433.665 386.367C431.382 394.298 422.31 399.246 414.164 397.89L382.844 394.414C378.823 393.742 377.381 395.804 378.788 399.628L392.305 461.648C394.599 467.888 391.042 474.747 384.617 476.468L338.013 488.924C333.5 490.129 328.993 486.977 328.581 482.325L325.899 466.318C325.789 465.095 325.441 460.188 328.216 458.207C332.272 455.31 338.645 451.254 338.645 451.254C340.794 450.101 341.014 446.654 340.383 444.302L322.678 375.451C319.787 364.681 326.49 356.333 337.492 354.502C351.396 352.185 374.571 346.97 374.571 346.97L384.495 282.227C385.799 277.088 390.544 273.572 395.845 273.827L411.07 274.551L447.569 290.194Z" fill="#FFDCE2"/>
<path d="M441.587 273.173C444.753 259.767 436.452 246.334 423.046 243.168C409.641 240.003 396.207 248.304 393.042 261.71C389.876 275.115 398.178 288.548 411.583 291.714C424.989 294.879 438.422 286.578 441.587 273.173Z" fill="#FFDCE2"/>
<path d="M190.817 267.1L273.699 192.12C277.981 188.244 284.244 188.551 289.313 191.315C299.562 196.906 317.139 206.899 332.817 223.886C345.98 238.15 367.85 260.797 370.434 279.968C370.73 282.163 369.965 284.365 368.43 285.958C343.158 312.139 291.752 360.359 286.005 365.26C272.401 376.865 237.125 350.666 217.027 327.307C208.632 317.556 180.313 277.007 190.817 267.1Z" fill="white"/>
<path d="M460.837 294.782C453.143 287.21 439.992 287.662 431.881 294.614L403.127 320.801C401.551 322.11 399.217 321.907 397.89 320.349L377.52 296.537C374.241 292.696 372.259 287.922 371.854 282.893L371.118 273.815C371.066 273.201 370.921 272.598 370.677 272.031L366.964 262.471C366.454 261.156 364.681 260.994 363.911 262.176C362.868 263.781 362.3 266.196 362.3 268.595C362.3 273.23 363.389 278.235 361.651 278.235C359.334 278.235 356.582 273.682 355.406 269.406C354.056 264.487 353.384 260.565 351.003 258.387C349.925 257.402 348.007 258.051 347.712 259.69C347.022 263.468 347.816 270.582 347.88 274.62C347.897 275.779 346.86 275.756 346.542 274.348C345.562 269.985 342.892 256.654 342.892 256.654C342.469 254.899 340.047 254.696 339.346 256.365C337.341 261.156 338.089 271.579 338.454 275.455C338.489 275.796 338.025 275.935 337.869 275.634C336.901 273.827 335.192 270.269 333.97 265.739C333.697 264.731 332.318 264.511 331.809 265.42C330.273 268.184 331.055 274.782 331.467 277.494C331.507 277.749 331.16 277.865 331.032 277.644C330.366 276.474 329.856 275.368 329.34 274.047C328.674 272.338 327.243 273.317 327.122 274.4C326.716 278.056 326.507 283.282 328.06 289.979C328.622 292.395 330.656 299.643 339.769 310.54L388.435 364.42C397.125 375.428 408.26 372.526 414.506 367.896C430.148 356.309 459.023 327.765 459.023 327.765C470.008 318.495 467.708 301.543 460.837 294.782Z" fill="#FFDCE2"/>
<path d="M243.208 311.809C214.124 280.721 198.962 271.758 191.558 270.93C189.919 270.744 188.499 272.025 188.511 273.676C188.598 288.82 209.93 319.068 217.021 327.318C233.208 346.142 259.262 366.807 275.889 368.053C277.164 368.146 278.195 367.039 278.05 365.776C277.042 356.889 270.02 340.47 243.208 311.809Z" fill="#F2BDBA"/>
<path d="M215.051 102.459C217.351 107.998 243.781 125.036 276.909 133.478L277.894 131.351C265.038 120.083 242.814 108.774 226.314 104.516C220.265 102.957 216.969 102.233 215.051 102.459Z" fill="#F2BDBA"/>
<path d="M278.49 52.9647C275.454 50.4329 271.845 48.7528 267.772 47.9706L267.992 46.8351C272.262 47.6578 276.04 49.419 279.232 52.0725L278.49 52.9647Z" fill="black"/>
<path d="M322.788 245.137L310.523 234.865C308.599 233.254 306.102 232.507 303.611 232.808C293.675 234.001 267.697 237.495 258.989 242.281C255.762 244.053 248.775 251.794 248.775 251.794C246.243 254.418 246.232 258.572 248.752 261.214L264.696 278.832C265.802 280.054 267.668 280.193 268.943 279.151L281.688 268.711C283.067 267.581 283.206 265.518 281.99 264.209L279.423 261.463C278.398 260.501 278.873 258.781 280.252 258.485L321.699 249.586C323.761 249.128 324.416 246.498 322.788 245.137ZM303.687 263.103C301.694 261.689 299.214 261.567 297.337 263.12L258.833 294.921C256.515 296.833 256.371 301.485 258.335 303.762C259.858 305.529 262.929 309.051 264.418 310.859C267.17 314.202 271.689 314.306 273.908 312.284L284.301 302.812C285.246 301.954 286.706 302.012 287.575 302.945L289.776 305.309C291.335 306.942 293.907 307.023 295.564 305.494L307.041 294.892C309.214 292.881 309.231 289.452 307.07 287.424L306.01 286.427C305.019 285.5 305.031 283.919 306.033 283.009L311.317 278.195C313.286 276.399 313.987 272.372 311.502 270.026C311.508 270.026 306.265 264.939 303.687 263.103Z" fill="#122638"/>
<path d="M219.75 105.558C227.055 111.311 246.151 121.775 269.736 129.428L270.513 127.8C260.768 119.521 238.573 109.237 220.225 104.591C219.651 104.446 219.28 105.193 219.75 105.558Z" fill="black"/>
<path d="M193.47 276.949C196.784 272.755 226.065 300.071 235.989 310.193C252.976 327.51 277.645 361.025 271.7 362.59C267.998 363.563 245.096 350.736 220.92 323.408C202.525 302.609 191.425 279.539 193.47 276.949Z" fill="black"/>
<path d="M389.101 35.2421L388.244 30.0395C387.531 25.7117 383.249 23.5913 379.113 25.0628C373.69 26.9863 366.657 29.269 362.845 32.2353C361.332 33.4114 360.51 35.2653 360.666 37.1714C362.062 54.1059 363.661 67.3036 364.42 73.132C364.687 75.2003 364.003 77.2801 362.555 78.7807L345.638 96.3757L362.792 105.147L394.906 75.2234L389.101 35.2421Z" fill="#274D76"/>
<path d="M276.915 133.478L289.186 106.937C291.312 102.343 295.796 99.3014 300.848 99.0175L326.276 97.6097C332.533 97.2621 338.622 95.4545 344.056 92.3318C348.506 89.7768 353.981 89.8 358.407 92.4013C361.315 94.1104 364.988 93.7917 367.561 91.6076L376.743 83.8094C377.798 82.9114 378.366 81.5731 378.279 80.1943C377.792 72.8133 376.245 48.6426 376.048 36.8585C376.019 35.2189 376.94 33.7068 378.412 32.9884C384.524 30.0047 394.095 28.5505 401.43 29.8019C403.243 30.109 404.663 31.5979 404.778 33.4345C405.271 41.4759 399.779 50.0909 399.779 50.0909L404.616 86.4571C405.682 94.4754 402.258 102.43 395.706 107.169L365.156 129.254C362.839 130.928 360.429 132.481 357.938 133.889C352.022 137.243 345.696 139.816 339.12 141.536L315.708 147.66L276.915 133.478Z" fill="#FFDCE2"/>
<path d="M287.442 109.631L301.665 107.476L312.719 119.22L291.294 139.607L279.962 126.804L287.442 109.631Z" fill="#274D76"/>
<path d="M322.237 102.984C325.02 92.3346 318.644 81.4452 307.995 78.6615C297.345 75.8779 286.456 82.2541 283.672 92.9033C280.889 103.553 287.265 114.442 297.914 117.226C308.563 120.009 319.453 113.633 322.237 102.984Z" fill="#FFDCE2"/>
<path d="M251.927 90.6342L255.699 84.8117C256.336 83.8268 255.948 82.5059 254.876 82.025L253.3 81.3182C252.35 80.8894 252.228 79.5917 253.086 78.9949L269.928 67.3209C270.779 66.73 270.588 65.4207 269.603 65.0904L261.892 62.5471C260.977 62.2458 259.98 62.379 259.175 62.912L242.594 73.8908C241.574 74.5629 240.751 75.4899 240.195 76.5732L237.866 81.1154C236.69 83.4096 237.698 86.2195 240.062 87.2392L249.557 91.3468C250.421 91.7234 251.423 91.4163 251.927 90.6342ZM271.839 88.0619L270.982 87.5289C270.217 87.0538 269.928 86.0863 270.298 85.2694L271.434 82.7781C272.1 81.3182 271.532 79.5917 270.13 78.8096L266.324 76.6891C264.829 75.8606 262.946 76.3994 262.129 77.9L250.629 98.861C249.865 100.257 250.287 102.007 251.608 102.899L255.681 105.64C257.182 106.648 259.227 106.149 260.102 104.568L263.398 98.5598C263.891 97.6676 265.026 97.3663 265.895 97.8935L266.347 98.1716C267.338 98.7799 268.636 98.4091 269.157 97.3721L272.558 90.6516C273.033 89.7304 272.714 88.6065 271.839 88.0619Z" fill="#122638"/>
<path d="M337.023 107.934C331.449 102.957 322.95 103.253 317.73 108.594L302.215 124.48C301.004 125.72 299.22 126.212 297.546 125.772L274.481 119.718C272.888 119.301 271.446 118.443 270.316 117.244L263.694 110.222C263.143 109.637 262.153 109.741 261.799 110.46C261.434 111.196 261.208 112.401 261.585 114.353C262.419 118.698 259.899 118.687 257.338 116.636C256.017 115.581 253.972 113.936 252.304 112.586C251.035 111.561 249.164 112.476 249.158 114.104C249.146 116.085 249.43 118.356 250.571 119.625C248.242 126.612 252.153 134.909 258.346 138.257C265.496 142.122 304.029 154.027 304.029 154.027C307.771 155.134 311.821 154.097 314.573 151.333L337.614 128.194C343.268 122.528 342.996 113.27 337.023 107.934Z" fill="#FFDCE2"/>
<path d="M290.906 84.7365C288.438 86.5267 286.514 89.1049 285.373 92.1754C282.801 99.0987 285.228 106.538 290.651 110.981C293.571 113.374 298.026 113.942 302.453 111.207C305.332 109.429 307.51 106.567 308.773 103.172C310.986 97.2216 309.492 91.0515 305.541 86.631C302.296 83.01 295.019 81.747 290.906 84.7365Z" fill="black"/>
<path d="M146.629 309.15C144.416 300.714 141.954 289.846 140.656 286.155C140.604 286.01 140.424 285.611 140.291 285.524C139.127 284.747 132.29 281.474 124.376 282.795C121.925 283.206 113.513 282.424 110.147 284.979C109.104 285.767 108.71 287.1 108.618 288.403C108.143 295.431 106.972 317.145 107.169 324.474C107.204 325.789 108.108 326.971 109.4 327.232C123.658 330.134 140.239 328.796 147.626 323.217C148.443 322.597 148.9 321.618 148.808 320.592C148.622 318.628 148.112 314.799 146.629 309.15Z" fill="white"/>
<path d="M65.1603 252.877L41.6037 245.513C40.3812 245.131 39.6165 243.914 39.7961 242.646L43.4344 217.194C43.6894 215.398 42.4437 213.736 40.6477 213.475L25.9321 211.227C25.2427 211.129 23.7595 211.644 23.7595 213.626C23.7595 214.593 24.026 215.132 24.5185 215.723L27.1777 218.927C27.676 219.523 27.8903 220.311 27.7629 221.076L24.617 240.543L35.3872 263.479L61.5567 266.277L65.1603 252.877Z" fill="#274D76"/>
<path d="M18.6206 220.039L39.095 252.245C39.6454 253.114 40.526 253.729 41.5283 253.954L46.1168 254.974C47.6405 255.31 49.2337 255.044 50.5605 254.233L52.3333 253.149C55.85 250.994 60.1314 250.49 64.0536 251.77L92.1408 260.93L83.9313 286.532L56.2381 279.776C53.8338 279.191 51.47 278.473 49.1468 277.621C45.6939 276.358 40.6419 274.429 37.5655 272.917C29.6341 269.018 27.0328 265.982 25.7409 263.56C21.6332 255.861 11.483 238.41 10.2026 236.348C8.53983 233.671 4.88408 233.44 2.94324 232.935C1.74397 232.623 0.863357 232.095 0.376699 230.954L0.12758 230.375C-0.167891 229.685 0.0638585 228.886 0.677975 228.457L14.1306 219.06C15.6253 218.017 17.6936 218.463 18.6206 220.039Z" fill="#FFDCE2"/>
<path d="M104.667 278.456L129.451 278.438C131.473 278.427 133.559 279.029 134.625 280.252C135.262 280.982 136.398 282.557 137 283.316C137.418 283.849 137.267 284.539 136.664 284.394L133.658 283.316L134.19 285.159C134.555 286.155 133.646 286.607 132.875 286.219L129.88 284.805C129.955 285.64 129.075 286.231 128.327 285.842C126.949 285.124 126.421 284.661 124.515 283.363C124.04 283.044 123.478 282.882 122.905 282.911C117.795 283.166 114.191 283.803 111.074 285.078C108.763 286.022 108.705 288.426 108.664 289.18C108.595 290.448 106.88 294.249 106.88 294.249L90.7446 290.929L87.8884 280.188L104.667 278.456Z" fill="#274D76"/>
<path d="M95.2463 281.318C102.273 281.318 107.969 275.383 107.969 268.062C107.969 260.741 102.273 254.806 95.2463 254.806C88.2198 254.806 82.5237 260.741 82.5237 268.062C82.5237 275.383 88.2198 281.318 95.2463 281.318Z" fill="#FFDCE2"/>
<path d="M100.779 299.359C100.779 299.359 92.9519 313.182 91.7758 321.351C91.3992 323.981 93.3169 326.397 95.9587 326.71C98.2993 326.982 101.92 327.116 107.372 326.681C106.584 324.219 108.38 302.331 109.151 293.484C109.255 292.296 107.789 291.659 106.984 292.54L100.779 299.359Z" fill="white"/>
<path d="M127.499 292.771C129.173 296.259 135.494 309.567 136.844 314.909C137.012 315.569 136.491 316.195 135.813 316.154C129.631 315.743 123.664 316.647 121.12 317.11C120.471 317.226 119.892 316.699 119.944 316.044L121.671 294.73C121.7 294.353 121.943 294.023 122.291 293.884L126.213 292.285C126.705 292.082 127.267 292.296 127.499 292.771Z" fill="white"/>
<path d="M135.39 310.604C132.528 303.119 127.088 291.926 127.088 291.926L125.807 292.447L131.879 316.05C133.565 316.032 135.326 316.137 137.087 316.305C137.006 315.181 136.34 313.101 135.39 310.604Z" fill="#122638"/>
<path d="M137.093 316.305C137.087 316.206 132.418 312.417 132.418 312.417C131.618 311.809 130.54 311.728 129.666 312.209L120.541 317.209C122.742 316.786 129.915 315.61 137.093 316.305Z" fill="#274D76"/>
<path d="M90.93 271.955C90.7156 274.267 91.2313 276.439 92.2568 278.264C92.9462 279.487 94.2439 280.275 95.6518 280.275C95.6576 280.275 95.6691 280.275 95.6749 280.275C102.013 280.275 107.152 274.922 107.152 268.317C107.152 268.305 107.152 268.288 107.152 268.276C107.14 265.49 105.147 263.12 102.511 262.68C101.706 262.547 100.866 262.512 100.003 262.587C95.2404 263.022 91.3877 267.002 90.93 271.955Z" fill="black"/>
<path d="M131.977 294.463L129.243 294.782C129.023 294.805 128.913 294.527 129.086 294.394L131.381 292.661C132.279 291.984 131.74 290.558 130.622 290.645C128.136 290.837 124.932 291.103 122.644 291.346C122.267 291.387 122.099 290.877 122.43 290.686C123.455 290.101 123.994 289.817 125.06 289.22C126.584 288.363 125.083 287.158 123.339 287.221C120.077 287.349 116.827 289.313 114.353 289.313C109.881 289.313 97.4999 288.71 97.4999 288.71C96.5208 288.675 95.6112 288.177 95.0608 287.366L85.0032 272.483C82.1875 268.763 76.8748 268.074 73.2075 270.953C69.7256 273.682 68.9782 278.658 71.51 282.291L86.2372 301.161C87.5987 302.904 89.667 303.959 91.8801 304.034L123.947 303.548C127.771 303.553 130.459 300.089 130.801 298.287C131.786 297.621 132.487 296.891 132.991 296.23C133.576 295.454 132.951 294.347 131.977 294.463Z" fill="#FFDCE2"/>
<path d="M92.5174 157.364C92.5174 157.364 95.2404 167.596 102.106 181.466C111.839 201.123 116.59 208.997 121.595 217.438C127.69 227.716 146.299 238.138 182.202 215.897C219.402 192.856 213.73 177.677 211.262 172.393C209.802 169.264 197.954 147.121 188.123 130.314C184.287 123.756 180.666 118.154 178.256 114.539C176.252 111.532 173.03 109.579 169.438 109.174C159.647 108.067 138.906 108.177 117.58 123.629C88.178 144.937 92.5174 157.364 92.5174 157.364Z" fill="white"/>
<path d="M212.757 183.644C213.736 178.702 211.604 173.65 207.45 170.788C196.917 163.523 176.286 163.21 150.129 179.733C121.387 197.89 120.721 213.255 124.996 221.766C133.374 230.033 151.438 234.952 182.196 215.897C204.24 202.247 211.227 191.355 212.757 183.644Z" fill="#F2BDBA"/>
<path d="M130.378 221.204C126.804 216.088 126.734 200.063 153.564 182.804C180.608 165.406 204.333 170.354 207.821 179.733C211.308 189.113 191.877 206.291 170.232 217.287C150.65 227.24 134.341 226.876 130.378 221.204Z" fill="black"/>
<path d="M107.146 322.962C104.788 322.956 102.303 323.083 99.8174 323.28C94.2208 323.726 93.4677 325.488 93.9949 326.027C94.4874 326.531 95.2347 326.803 95.9589 326.884C98.2995 327.156 103.131 327.313 108.276 326.71C107.146 325.465 107.152 324.862 107.146 322.962Z" fill="black"/>
<path d="M146.502 288.467C144.827 286.399 143.871 286.654 140.812 286.607C142.11 291.091 144.37 300.541 146.629 309.156C148.889 317.765 148.9 322.145 148.9 322.145C151.739 321.768 154.028 321.345 159.584 320.413C164.12 319.648 164.525 315.894 162.179 312.417L146.502 288.467Z" fill="white"/>
<path d="M146.681 323.883C147.006 323.06 146.473 322.237 145.111 321.565C142.406 320.221 137.11 319.167 126.792 319.746C117.279 320.279 112.453 322.631 110.026 324.705C108.728 325.818 108.815 326.675 109.962 327.37C124.26 330.841 139.051 328.906 146.681 323.883Z" fill="#F2BDBA"/>
<path d="M160.175 320.517C161.322 320.221 161.501 318.993 160.905 318.564C160.65 318.385 160.348 318.199 159.989 318.014C157.168 316.565 152.66 316.583 148.35 317.098C148.894 320.447 148.993 321.252 148.379 322.388C151.89 322.145 159.833 320.604 160.175 320.517Z" fill="black"/>
<path d="M126.78 153.975C125.095 149.734 125.042 145.007 127.03 141.907C127.493 141.183 128.345 140.001 127.916 139.26L124.185 133.848C123.397 132.481 121.34 133.339 120.396 134.607C115.744 140.882 114.006 149.057 117.482 157.782C122.586 170.614 132.064 174.369 141.832 171.982C143.414 171.593 144.184 169.803 143.367 168.395L140.517 163.674C139.891 162.59 138.692 161.994 137.441 162.092C133.223 162.434 129.052 159.676 126.78 153.975ZM154.607 138.837C147.22 127.14 135.482 125.355 127.794 128.275C126.45 128.785 125.842 130.343 126.56 131.589L130.755 137.272C131.253 138.13 132.238 138.547 133.206 138.362C137.307 137.568 142.348 139.155 145.667 144.173C148.303 148.159 148.298 154.398 144.115 158.407C143.199 159.288 143.292 160.8 143.929 161.901L146.606 166.518C147.666 168.343 150.036 168.517 151.652 167.167C159.23 160.841 159.786 147.04 154.607 138.837Z" fill="#122638"/>
<path d="M320.088 138.02C319.688 138.02 319.283 137.916 318.912 137.701C316.073 136.05 310.952 132.823 308.547 129.828C307.87 128.982 307.887 127.748 308.6 126.89L316.125 117.818C316.919 116.856 318.327 116.688 319.329 117.43C321.693 119.185 325.998 122.429 328.286 124.457C329.207 125.274 329.352 126.63 328.622 127.615C325.992 131.172 323.367 135.019 322.041 136.989C321.583 137.655 320.841 138.02 320.088 138.02ZM317.927 118.125C317.585 118.125 317.244 118.27 317.012 118.553L309.486 127.626C309.127 128.061 309.109 128.675 309.451 129.098C311.827 132.058 317.267 135.401 319.497 136.699C320.036 137.012 320.725 136.855 321.073 136.34C322.411 134.358 325.042 130.5 327.684 126.919C328.049 126.421 327.979 125.732 327.51 125.32C325.256 123.322 320.98 120.1 318.628 118.356C318.42 118.2 318.171 118.125 317.927 118.125Z" fill="black"/>
<path d="M429.592 344.27C429.447 344.27 429.302 344.265 429.152 344.247C427.947 344.131 426.863 343.546 426.104 342.608L413.619 327.11C412.136 325.267 412.35 322.585 414.1 320.998L427.9 308.524C428.81 307.701 429.98 307.296 431.197 307.383C432.419 307.47 433.52 308.032 434.308 308.964L447.517 324.705C449.099 326.588 448.85 329.404 446.973 330.986L432.454 343.21C431.643 343.905 430.641 344.27 429.592 344.27ZM414.882 321.861C413.584 323.037 413.428 325.018 414.523 326.386L427.008 341.883C427.57 342.579 428.37 343.013 429.262 343.1C430.154 343.187 431.023 342.915 431.707 342.341L446.225 330.117C447.616 328.946 447.795 326.861 446.631 325.464L433.422 309.723C432.842 309.028 432.02 308.611 431.116 308.553C430.212 308.495 429.343 308.791 428.677 309.399L414.882 321.861Z" fill="black"/>
<path d="M361.39 317.093L360.486 316.369L366.993 308.205C367.375 307.725 367.242 307.221 366.987 306.908C366.732 306.595 366.263 306.363 365.712 306.641L358.36 310.424C357.398 310.917 356.309 310.679 355.637 309.839C354.965 308.999 354.988 307.881 355.684 307.058L362.225 299.335C362.63 298.855 362.497 298.339 362.242 298.02C361.981 297.702 361.512 297.458 360.956 297.754L342.005 307.4L341.478 306.369L360.423 296.723C361.373 296.219 362.474 296.45 363.146 297.29C363.824 298.136 363.806 299.254 363.111 300.083L356.57 307.806C356.164 308.281 356.292 308.796 356.547 309.115C356.802 309.434 357.271 309.677 357.827 309.393L365.173 305.61C366.118 305.123 367.201 305.349 367.873 306.166C368.545 306.983 368.551 308.095 367.891 308.924L361.39 317.093Z" fill="black"/>
<path d="M392.932 329.106L384.475 351.909L385.562 352.312L394.018 329.509L392.932 329.106Z" fill="black"/>
<path d="M406.199 334.059L405.106 334.444L414.86 362.157L415.953 361.773L406.199 334.059Z" fill="black"/>
<path d="M405.795 353.245L404.649 353.414L406.661 367.038L407.807 366.869L405.795 353.245Z" fill="black"/>
<path d="M392.758 347.992L390.675 358.908L391.813 359.125L393.897 348.21L392.758 347.992Z" fill="black"/>
<path d="M300.024 129.175L299.006 129.727L309.518 149.097L310.536 148.544L300.024 129.175Z" fill="black"/>
<path d="M300.09 139.468L298.977 139.788L302.223 151.08L303.337 150.76L300.09 139.468Z" fill="black"/>
<path d="M294.85 131.011L293.845 147.98L295.002 148.049L296.007 131.079L294.85 131.011Z" fill="black"/>
<path d="M264.227 137.591L263.108 137.29L266.086 126.155C266.272 125.454 266.903 125.019 267.627 125.094C268.346 125.17 268.873 125.732 268.914 126.45L269.244 133.118C269.255 133.304 269.383 133.362 269.464 133.379C269.545 133.397 269.684 133.402 269.771 133.234L274.07 124.753L275.101 125.274L270.808 133.756C270.507 134.347 269.875 134.648 269.226 134.509C268.578 134.37 268.126 133.837 268.091 133.176L267.761 126.508C267.749 126.299 267.598 126.253 267.512 126.247C267.425 126.236 267.268 126.253 267.216 126.45L264.227 137.591Z" fill="black"/>
<path d="M383.337 79.2834L383.155 80.4276L400.112 83.1305L400.295 81.9863L383.337 79.2834Z" fill="black"/>
<path d="M384.502 84.4735L384.08 85.5529L400 91.7706L400.422 90.6912L384.502 84.4735Z" fill="black"/>
<path d="M384.726 88.9482L383.848 89.704L395.106 102.786L395.984 102.03L384.726 88.9482Z" fill="black"/>
<path d="M367.474 399.57L367.41 399.564L334.282 395.775L334.416 394.622L367.508 398.405C368.308 398.394 368.742 397.843 368.887 397.333C369.032 396.818 368.934 396.111 368.227 395.694L330.105 377.699C328.917 376.992 328.471 375.665 328.97 374.437C329.468 373.209 330.719 372.566 332.005 372.879L362.242 379.605C363.111 379.814 363.685 379.304 363.916 378.8C364.142 378.307 364.165 377.56 363.493 377.038L338.164 364.519L338.68 363.482L364.142 376.077C365.336 376.952 365.417 378.319 364.971 379.286C364.525 380.254 363.43 381.077 361.987 380.735L331.751 374.008C330.841 373.788 330.267 374.339 330.047 374.878C329.827 375.411 329.856 376.204 330.65 376.679L368.771 394.674C369.861 395.323 370.324 396.476 370.005 397.646C369.675 398.816 368.684 399.57 367.474 399.57Z" fill="black"/>
<path d="M82.1643 290.251C82.0426 290.251 81.921 290.245 81.7993 290.228C81.0751 290.124 80.432 289.712 80.0323 289.098L76.9964 284.446C76.2375 283.287 76.5561 281.712 77.709 280.941L81.7587 278.224C82.9174 277.448 84.4933 277.755 85.2754 278.902L88.0853 283.015C88.8211 284.093 88.6241 285.541 87.6334 286.387L83.8155 289.643C83.352 290.043 82.7668 290.251 82.1643 290.251ZM83.1782 278.96C82.9117 278.96 82.6452 279.035 82.4076 279.191L78.3579 281.909C77.7322 282.331 77.5584 283.183 77.9698 283.82L81.0056 288.473C81.2257 288.809 81.5734 289.029 81.9673 289.087C82.3671 289.145 82.761 289.029 83.0623 288.768L86.8802 285.512C87.419 285.049 87.5291 284.261 87.1236 283.676L84.3137 279.562C84.0588 279.168 83.6185 278.96 83.1782 278.96Z" fill="black"/>
<path d="M93.1473 290.692L86.8044 297.339L87.6428 298.139L93.9856 291.491L93.1473 290.692Z" fill="black"/>
<path d="M91.2149 296.785L89.5242 300.202L90.5627 300.716L92.2534 297.299L91.2149 296.785Z" fill="black"/>
<path d="M95.8502 290.567L93.4856 301.851L94.6196 302.089L96.9843 290.805L95.8502 290.567Z" fill="black"/>
<path d="M109.041 299.677C109.012 299.677 108.989 299.677 108.96 299.677C108.189 299.643 107.534 299.15 107.291 298.42L106.26 295.303L107.361 294.938L108.392 298.055C108.531 298.467 108.896 298.519 109.006 298.519C109.116 298.519 109.487 298.507 109.661 298.107L110.663 295.761C110.906 295.193 111.41 294.788 112.019 294.678C112.627 294.567 113.241 294.759 113.67 295.199L116.7 298.304C116.966 298.577 117.291 298.548 117.511 298.426C117.731 298.304 117.934 298.044 117.847 297.673L116.439 291.648L117.569 291.387L118.977 297.412C119.168 298.223 118.803 299.04 118.073 299.44C117.337 299.84 116.456 299.706 115.871 299.11L112.841 296.004C112.679 295.836 112.453 295.767 112.233 295.813C112.007 295.854 111.822 296.004 111.735 296.213L110.732 298.559C110.437 299.249 109.782 299.677 109.041 299.677Z" fill="black"/>
<path d="M34.355 253.228L26.0581 256.075L26.4342 257.171L34.7311 254.324L34.355 253.228Z" fill="black"/>
<path d="M32.0598 256.922L27.5991 260.637L28.3407 261.527L32.8013 257.812L32.0598 256.922Z" fill="black"/>
<path d="M35.3662 257.146L31.8987 266.067L32.9787 266.487L36.4463 257.566L35.3662 257.146Z" fill="black"/>
<path d="M4.28744 231.151C4.15998 231.151 4.02674 231.139 3.89928 231.111L2.89697 230.89L3.14609 229.761L4.1484 229.981C4.33379 230.021 4.52497 229.981 4.6756 229.876C4.83202 229.766 4.93054 229.604 4.95371 229.413L5.05799 228.602C5.12751 228.086 5.41138 227.623 5.84011 227.327C6.26883 227.032 6.80762 226.939 7.31166 227.061L9.30464 227.553C9.519 227.605 9.73917 227.553 9.90139 227.408C10.0694 227.264 10.1505 227.055 10.1332 226.835L10.0346 225.723C9.98249 225.132 10.2084 224.564 10.6545 224.176C11.1007 223.787 11.6916 223.637 12.2709 223.776L13.5745 224.083C13.7888 224.135 14.0032 224.077 14.1712 223.932C14.3335 223.787 14.4204 223.579 14.3972 223.359C14.3335 222.721 14.6 222.113 15.1098 221.725C15.6196 221.337 16.2801 221.244 16.8768 221.476L18.3716 222.049L17.9544 223.133L16.4597 222.559C16.2395 222.472 16.002 222.507 15.8108 222.652C15.6196 222.797 15.5269 223.017 15.5501 223.254C15.608 223.851 15.3821 224.413 14.936 224.807C14.4899 225.201 13.8932 225.352 13.3138 225.213L12.0103 224.906C11.7959 224.859 11.5815 224.911 11.4135 225.05C11.2513 225.195 11.1644 225.398 11.1875 225.618L11.2861 226.731C11.3382 227.322 11.1064 227.901 10.6545 228.283C10.2027 228.666 9.59432 228.816 9.02076 228.671L7.02778 228.179C6.84239 228.133 6.6512 228.167 6.48898 228.277C6.32676 228.388 6.22827 228.55 6.1993 228.747L6.09503 229.558C6.0255 230.062 5.7532 230.52 5.33027 230.815C5.02901 231.035 4.66402 231.151 4.28744 231.151Z" fill="black"/>
<path d="M382.508 42.2234C382.49 42.2234 382.479 42.2234 382.461 42.2234C381.87 42.206 381.361 41.8584 381.129 41.3196L380.19 39.1413C380.109 38.9559 379.947 38.9327 379.877 38.9327C379.877 38.9327 379.877 38.9327 379.872 38.9327C379.802 38.9327 379.634 38.9559 379.559 39.147L378.51 41.7657L377.433 41.337L378.481 38.7183C378.707 38.1506 379.246 37.7856 379.854 37.774C379.86 37.774 379.866 37.774 379.872 37.774C380.474 37.774 381.013 38.1274 381.251 38.6778L382.189 40.8561C382.264 41.0357 382.427 41.0589 382.496 41.0647C382.56 41.0647 382.722 41.0531 382.809 40.8735L383.487 39.5178C383.713 39.0659 384.147 38.7589 384.646 38.7009C385.15 38.6372 385.642 38.8284 385.967 39.2166L387.085 40.5201C387.206 40.6592 387.357 40.6418 387.415 40.6302C387.473 40.6186 387.618 40.5723 387.67 40.3927L388.348 38.1274C388.498 37.6291 388.886 37.2468 389.396 37.1077C389.9 36.9687 390.433 37.1019 390.81 37.4611L393 39.512C393.127 39.6337 393.278 39.6105 393.336 39.5874C393.394 39.57 393.527 39.512 393.568 39.3382L393.996 37.4843C394.118 36.9687 394.483 36.5631 394.987 36.3951C395.491 36.2271 396.03 36.3372 396.43 36.679L398 38.0173C398.139 38.1332 398.284 38.0984 398.342 38.0752C398.399 38.0521 398.533 37.9883 398.562 37.8087L398.857 35.9722C398.944 35.4276 399.326 34.9757 399.848 34.7961C400.375 34.6165 400.949 34.7382 401.354 35.1147C401.505 35.2538 401.661 35.2016 401.725 35.1785C401.789 35.1495 401.928 35.0684 401.928 34.8656V33.5447H403.086V34.8656C403.086 35.4739 402.745 35.9954 402.188 36.2387C401.632 36.482 401.012 36.3777 400.566 35.9664C400.433 35.8389 400.282 35.8737 400.224 35.8969C400.167 35.9142 400.027 35.9838 399.998 36.1634L399.703 37.9999C399.616 38.5387 399.257 38.979 398.741 39.1702C398.226 39.3614 397.669 39.2629 397.252 38.9037L395.682 37.5654C395.549 37.4553 395.41 37.4843 395.352 37.5017C395.3 37.5191 395.167 37.5828 395.126 37.7508L394.697 39.6047C394.576 40.132 394.193 40.5433 393.672 40.7055C393.151 40.8619 392.606 40.7345 392.206 40.3637L390.016 38.3128C389.889 38.1969 389.75 38.2201 389.692 38.2317C389.634 38.2491 389.501 38.3012 389.454 38.4634L388.776 40.7287C388.62 41.2559 388.185 41.6499 387.652 41.7657C387.114 41.8816 386.557 41.6904 386.204 41.2733L385.086 39.9697C384.976 39.8423 384.843 39.8481 384.785 39.8539C384.732 39.8597 384.593 39.8944 384.518 40.0393L383.84 41.3949C383.591 41.9048 383.081 42.2234 382.508 42.2234Z" fill="black"/>
<path d="M380.811 33.4159L380.228 34.4167L385.757 37.642L386.341 36.6411L380.811 33.4159Z" fill="black"/>
<path d="M386.019 31.2844L385.456 32.2974L392.643 36.2895L393.206 35.2766L386.019 31.2844Z" fill="black"/>
<path d="M392.589 30.5726L392.093 31.6195L398.007 34.4254L398.504 33.3785L392.589 30.5726Z" fill="black"/>
<path d="M332.782 482.337L331.716 481.885L333.489 477.713C333.917 476.705 334.763 475.958 335.818 475.657C336.872 475.355 337.984 475.547 338.882 476.178L340.725 477.476C341.368 477.928 342.162 478.049 342.909 477.794C343.656 477.545 344.218 476.972 344.462 476.224L344.78 475.234C345.14 474.104 346.038 473.229 347.167 472.887C348.297 472.546 349.531 472.783 350.452 473.519L352.324 475.008C352.967 475.518 353.784 475.674 354.566 475.431C355.348 475.193 355.939 474.602 356.182 473.82L356.663 472.273C357.016 471.138 357.868 470.274 359.003 469.915C360.139 469.55 361.332 469.759 362.283 470.477L364.432 472.105C365.081 472.598 365.898 472.737 366.674 472.482C367.45 472.227 368.024 471.63 368.256 470.848L369.061 468.108C369.415 466.908 370.341 465.993 371.547 465.651C372.746 465.315 374.02 465.616 374.947 466.456L376.674 468.027C377.317 468.612 378.203 468.814 379.038 468.554C379.872 468.299 380.492 467.638 380.7 466.792C381.007 465.529 381.934 464.55 383.186 464.185C384.431 463.82 385.741 464.133 386.685 465.031L389.373 467.586L388.574 468.426L385.886 465.871C385.242 465.263 384.356 465.049 383.51 465.298C382.664 465.547 382.033 466.207 381.824 467.071C381.523 468.322 380.608 469.29 379.379 469.666C378.151 470.043 376.848 469.753 375.897 468.884L374.171 467.314C373.545 466.74 372.682 466.538 371.865 466.769C371.048 467.001 370.417 467.621 370.179 468.432L369.374 471.172C369.038 472.308 368.169 473.206 367.045 473.577C365.915 473.948 364.681 473.739 363.737 473.026L361.587 471.398C360.944 470.912 360.133 470.773 359.363 471.016C358.592 471.259 358.013 471.844 357.775 472.615L357.294 474.162C356.941 475.297 356.049 476.184 354.913 476.537C353.778 476.885 352.544 476.653 351.611 475.912L349.74 474.423C349.102 473.913 348.291 473.756 347.509 473.994C346.727 474.231 346.136 474.811 345.887 475.587L345.568 476.578C345.215 477.684 344.381 478.524 343.28 478.895C342.179 479.266 341.009 479.092 340.059 478.42L338.216 477.122C337.608 476.694 336.855 476.566 336.136 476.769C335.424 476.972 334.844 477.482 334.555 478.165L332.782 482.337Z" fill="black"/>
<path d="M294.921 453.63H293.762V448.073C293.762 447.309 293.368 446.625 292.714 446.237C292.059 445.849 291.265 445.837 290.599 446.202L288.148 447.552C287.117 448.12 285.895 448.102 284.886 447.5C283.873 446.903 283.27 445.843 283.27 444.667V442.755C283.27 442.031 282.922 441.382 282.32 440.976C281.717 440.571 280.982 440.501 280.315 440.785L277.169 442.1C276.15 442.529 274.991 442.419 274.076 441.805C273.154 441.191 272.604 440.165 272.604 439.064V438.433C272.604 437.709 272.262 437.066 271.66 436.66C271.057 436.255 270.327 436.179 269.661 436.457L266.648 437.691C265.629 438.109 264.476 437.993 263.566 437.379C262.651 436.764 262.106 435.745 262.106 434.644C262.106 433.914 261.759 433.265 261.15 432.865C260.542 432.46 259.806 432.396 259.14 432.68L256.799 433.671C255.895 434.053 254.882 434.013 254.013 433.566C253.144 433.12 252.518 432.321 252.304 431.365L252.002 430.044C251.857 429.418 251.452 428.897 250.884 428.613C250.311 428.323 249.65 428.306 249.065 428.567L244.905 430.392L244.442 429.331L248.601 427.506C249.505 427.112 250.531 427.136 251.411 427.582C252.292 428.028 252.923 428.833 253.144 429.795L253.445 431.116C253.584 431.736 253.989 432.251 254.551 432.541C255.113 432.831 255.774 432.854 256.359 432.61L258.7 431.62C259.719 431.185 260.878 431.295 261.805 431.909C262.726 432.524 263.276 433.549 263.276 434.656C263.276 435.38 263.618 436.023 264.221 436.428C264.823 436.834 265.548 436.903 266.22 436.631L269.232 435.397C270.252 434.98 271.405 435.096 272.314 435.71C273.23 436.324 273.774 437.344 273.774 438.445V439.076C273.774 439.8 274.122 440.449 274.725 440.855C275.327 441.26 276.063 441.33 276.729 441.046L279.875 439.731C280.895 439.308 282.053 439.418 282.969 440.026C283.89 440.64 284.435 441.666 284.435 442.767V444.678C284.435 445.443 284.829 446.127 285.483 446.515C286.138 446.903 286.932 446.915 287.598 446.55L290.049 445.2C291.08 444.632 292.302 444.649 293.31 445.252C294.324 445.849 294.927 446.909 294.927 448.085V453.63H294.921Z" fill="black"/>
<path d="M425.2 276.011C419.847 284.701 405.595 289.255 398.654 279.916C390.943 269.533 396.441 247.454 412.489 246.527C416.151 246.313 419.801 247.512 422.686 249.899C430.009 255.965 431.203 266.266 425.2 276.011Z" fill="black"/>
<path d="M406.899 264.505C404.929 270.594 402.669 277.326 399.836 273.873C398.075 271.723 397.003 266.556 398.261 261.643C399.251 257.773 402.021 254.059 404.772 252.112C406.198 251.104 407.64 250.872 408.793 251.486C411.736 253.045 409.106 257.674 406.899 264.505Z" fill="#74BAAB"/>
<path d="M295.639 95.385C292.667 98.5656 289.325 102.048 287.951 98.4208C287.1 96.1671 287.5 92.1985 289.643 89.4813C291.329 87.3377 294.353 86.1211 296.943 86.0805C298.287 86.0631 299.452 86.573 300.205 87.5173C302.105 89.9216 298.971 91.8161 295.639 95.385Z" fill="#74BAAB"/>
<path d="M101.457 270.043C101.497 267.963 101.578 265.658 103.172 266.503C104.162 267.031 106.068 271.208 103.884 273.763C103.473 274.244 102.865 274.394 102.314 274.296C100.918 274.052 101.41 272.372 101.457 270.043Z" fill="#74BAAB"/>
<path d="M143.141 324.091C143.39 323.553 142.944 323.025 141.832 322.614C139.613 321.797 135.297 321.212 126.925 321.791C119.208 322.324 115.332 323.952 113.391 325.349C112.354 326.096 112.435 326.658 113.386 327.081C125.054 329.062 137.029 327.51 143.141 324.091Z" fill="black"/>
<path d="M345.951 274.475C344.983 270.159 342.324 256.898 342.295 256.765L343.43 256.539C343.459 256.672 346.113 269.916 347.08 274.221L345.951 274.475Z" fill="black"/>
<path d="M357.694 275.883C356.501 274.151 355.458 271.845 354.832 269.562C354.612 268.763 354.409 267.987 354.218 267.239C353.239 263.491 352.468 260.524 350.597 258.815L351.379 257.958C353.505 259.899 354.316 263.01 355.342 266.944C355.533 267.685 355.736 268.456 355.956 269.25C356.553 271.416 357.532 273.595 358.656 275.223L357.694 275.883Z" fill="black"/>
<path d="M363.192 276.15L362.034 276.115C362.063 275.205 361.976 274.018 361.889 272.76C361.802 271.468 361.698 270.008 361.698 268.595C361.698 266.017 362.335 263.502 363.401 261.857L364.374 262.488C363.424 263.954 362.856 266.231 362.856 268.595C362.856 269.962 362.949 271.347 363.042 272.679C363.134 273.965 363.221 275.182 363.192 276.15Z" fill="black"/>
<path d="M400.729 322.232C399.5 322.232 398.29 321.716 397.438 320.725L387.792 309.451L388.672 308.698L398.319 319.972C399.437 321.281 401.424 321.455 402.751 320.354L431.487 294.185C433.063 292.835 434.835 291.705 436.765 290.825L437.246 291.879C435.415 292.713 433.735 293.785 432.251 295.054L403.51 321.229C402.699 321.901 401.708 322.232 400.729 322.232Z" fill="black"/>
<path d="M402.64 372.63C397.687 372.63 392.467 370.492 387.96 364.78L376.859 352.491L377.717 351.715L388.846 364.032C396.992 374.35 407.565 372.305 414.141 367.433C419.401 363.534 426.724 357.3 435.907 348.899L436.689 349.757C427.477 358.181 420.12 364.444 414.83 368.366C411.481 370.84 407.171 372.63 402.64 372.63Z" fill="black"/>
<path d="M330.505 277.929C329.862 276.799 329.329 275.669 328.779 274.255L329.862 273.838C330.395 275.211 330.887 276.266 331.513 277.355L330.505 277.929Z" fill="black"/>
<path d="M337.33 275.901C336.391 274.145 334.63 270.507 333.378 265.884L334.497 265.582C335.713 270.096 337.434 273.641 338.349 275.35L337.33 275.901Z" fill="black"/>
<path d="M417.298 292.91C407.93 292.91 399.332 287.795 394.86 279.556L395.879 279C400.149 286.862 408.359 291.752 417.298 291.752V292.91Z" fill="black"/>
<path d="M260.235 118.559C259.314 118.559 258.184 118.061 256.985 117.099C255.664 116.045 253.619 114.394 251.945 113.049L252.675 112.146C254.349 113.496 256.388 115.141 257.709 116.195C258.943 117.186 260.142 117.626 260.693 117.29C261.191 116.989 261.307 115.964 261.023 114.469C260.681 112.684 260.768 111.253 261.29 110.205L262.327 110.72C262.049 111.282 261.794 112.348 262.159 114.249C262.558 116.334 262.269 117.69 261.29 118.281C260.983 118.466 260.623 118.559 260.235 118.559Z" fill="black"/>
<path d="M302.632 124.886L301.804 124.075L317.319 108.189C322.765 102.61 331.594 102.308 337.411 107.499L336.64 108.363C331.287 103.583 323.165 103.861 318.153 108.994L302.632 124.886Z" fill="black"/>
<path d="M337.201 127.792L321.459 143.61L322.28 144.427L338.022 128.609L337.201 127.792Z" fill="black"/>
<path d="M88.0621 278.044L84.528 272.813C83.2824 271.167 81.4343 270.096 79.3544 269.823C77.2745 269.557 75.2178 270.119 73.5666 271.411L72.854 270.501C74.7543 269.012 77.1123 268.363 79.505 268.676C81.8978 268.989 84.0124 270.217 85.4724 272.141L89.0238 277.395L88.0621 278.044Z" fill="black"/>
<path d="M107.406 306.081L106.72 319.574L107.877 319.632L108.564 306.139L107.406 306.081Z" fill="black"/>
<path d="M142.276 289.537L141.153 289.821L146.817 312.293L147.94 312.009L142.276 289.537Z" fill="black"/>
<defs>
<linearGradient id="paint0_linear_10_563" x1="236.881" y1="10.4458" x2="236.881" y2="447.859" gradientUnits="userSpaceOnUse">
<stop stop-color="#255A71"/>
<stop offset="1" stop-color="#122638"/>
</linearGradient>
</defs>
</svg>
