<svg width="235" height="64" viewBox="0 0 235 64" fill="none" xmlns="http://www.w3.org/2000/svg">
<path d="M14.665 43.42C12.9617 43.42 11.6433 43.1867 10.71 42.72C9.8 42.23 8.94833 41.46 8.155 40.41L10.535 38.38C11.1883 39.15 11.8067 39.6867 12.39 39.99C12.9733 40.2933 13.7317 40.445 14.665 40.445C15.8083 40.445 16.6483 40.2817 17.185 39.955C17.7217 39.6283 17.99 39.1267 17.99 38.45C17.99 38.03 17.8617 37.6917 17.605 37.435C17.3717 37.155 16.9283 36.91 16.275 36.7C15.645 36.49 14.7233 36.28 13.51 36.07C10.2433 35.4633 8.61 33.76 8.61 30.96C8.61 29.4667 9.18167 28.2883 10.325 27.425C11.4917 26.5617 13.0433 26.13 14.98 26.13C17.8967 26.13 19.9267 27.0517 21.07 28.895L18.725 30.89C18.1417 30.26 17.57 29.805 17.01 29.525C16.45 29.245 15.7733 29.105 14.98 29.105C14.0933 29.105 13.405 29.28 12.915 29.63C12.4483 29.98 12.215 30.4583 12.215 31.065C12.215 31.6483 12.4833 32.1033 13.02 32.43C13.5567 32.7333 14.2917 32.9783 15.225 33.165C16.695 33.4917 17.8733 33.8417 18.76 34.215C19.6467 34.565 20.3467 35.09 20.86 35.79C21.3733 36.4667 21.63 37.3767 21.63 38.52C21.63 41.7867 19.3083 43.42 14.665 43.42ZM41.1359 38.59C41.1359 39.15 41.2409 39.6167 41.4509 39.99C41.6609 40.34 42.0576 40.725 42.6409 41.145L40.0859 43.35C39.3159 42.9533 38.7326 42.5333 38.3359 42.09C37.9393 41.6233 37.6593 41.0633 37.4959 40.41C36.9593 41.3433 36.2593 42.0783 35.3959 42.615C34.5326 43.1517 33.4826 43.42 32.2459 43.42C30.4493 43.42 29.0609 42.93 28.0809 41.95C27.1009 40.9467 26.6109 39.5233 26.6109 37.68V26.55H30.4259V37.365C30.4259 38.3217 30.6826 39.08 31.1959 39.64C31.7093 40.1767 32.4326 40.445 33.3659 40.445C34.3459 40.445 35.1626 40.1067 35.8159 39.43C36.4693 38.7533 36.9709 37.855 37.3209 36.735V26.55H41.1359V38.59ZM57.0207 26.13C58.5607 26.13 59.8674 26.5033 60.9407 27.25C62.0141 27.9733 62.8191 28.9533 63.3557 30.19C63.8924 31.4033 64.1607 32.745 64.1607 34.215V35.335C64.1607 36.805 63.8924 38.1583 63.3557 39.395C62.8191 40.6083 62.0141 41.5883 60.9407 42.335C59.8674 43.0583 58.5607 43.42 57.0207 43.42C55.6674 43.42 54.5824 43.2217 53.7657 42.825C52.9724 42.405 52.3074 41.8217 51.7707 41.075V50.665H47.9557V30.925C47.9557 30.365 47.8391 29.91 47.6057 29.56C47.3957 29.1867 47.0224 28.79 46.4857 28.37L49.0407 26.13C49.7641 26.5033 50.3241 26.9233 50.7207 27.39C51.1174 27.8333 51.3857 28.3583 51.5257 28.965C52.7391 27.075 54.5707 26.13 57.0207 26.13ZM60.3457 34.215C60.3457 32.745 59.9607 31.5317 59.1907 30.575C58.4207 29.595 57.3474 29.105 55.9707 29.105C53.8241 29.105 52.4241 30.1667 51.7707 32.29V37.26C52.4241 39.3833 53.8241 40.445 55.9707 40.445C57.3474 40.445 58.4207 39.9667 59.1907 39.01C59.9607 38.03 60.3457 36.805 60.3457 35.335V34.215ZM78.0708 26.13C79.1441 26.13 80.0891 26.4217 80.9058 27.005L79.9258 30.225C79.5058 29.945 79.0741 29.7467 78.6308 29.63C78.2108 29.49 77.7208 29.42 77.1608 29.42C75.3408 29.42 74.0574 30.7617 73.3108 33.445V43H69.4958V30.925C69.4958 30.365 69.3908 29.91 69.1808 29.56C68.9708 29.21 68.5858 28.8133 68.0258 28.37L70.5808 26.13C71.3974 26.55 72.0041 27.0167 72.4008 27.53C72.8208 28.02 73.0891 28.6383 73.2058 29.385C73.6958 28.3817 74.3491 27.5883 75.1658 27.005C75.9824 26.4217 76.9508 26.13 78.0708 26.13ZM91.3943 40.48C92.3043 40.48 93.0626 40.3633 93.6693 40.13C94.2993 39.8733 94.9293 39.4417 95.5593 38.835L97.8343 40.935C97.1343 41.7517 96.2593 42.37 95.2093 42.79C94.1593 43.21 92.8643 43.42 91.3243 43.42C88.8043 43.42 86.9376 42.9067 85.7243 41.88C84.511 40.83 83.9043 39.2317 83.9043 37.085V31.975C83.9043 30.1783 84.5343 28.7667 85.7943 27.74C87.0776 26.69 88.8276 26.165 91.0443 26.165C93.3076 26.165 95.0693 26.725 96.3293 27.845C97.5893 28.9417 98.2193 30.5283 98.2193 32.605C98.2193 33.5617 98.126 34.3083 97.9393 34.845C97.7526 35.3817 97.4143 35.7783 96.9243 36.035C96.4343 36.2683 95.711 36.385 94.7543 36.385H87.6843V37.085C87.6843 39.3483 88.921 40.48 91.3943 40.48ZM91.0093 29.07C89.9826 29.07 89.166 29.3617 88.5593 29.945C87.976 30.5283 87.6843 31.2983 87.6843 32.255V33.76H92.6893C93.3426 33.76 93.7976 33.655 94.0543 33.445C94.311 33.2117 94.4393 32.815 94.4393 32.255C94.4393 31.2283 94.136 30.4467 93.5293 29.91C92.946 29.35 92.106 29.07 91.0093 29.07ZM122.238 26.13C123.872 26.13 125.132 26.6317 126.018 27.635C126.928 28.615 127.383 30.0033 127.383 31.8V43H123.568V32.185C123.568 31.2283 123.347 30.4817 122.903 29.945C122.483 29.385 121.888 29.105 121.118 29.105C120.208 29.105 119.438 29.4317 118.808 30.085C118.202 30.7383 117.747 31.59 117.443 32.64V43H113.628V32.185C113.628 31.2283 113.418 30.4817 112.998 29.945C112.578 29.385 111.983 29.105 111.213 29.105C110.303 29.105 109.533 29.4317 108.903 30.085C108.273 30.7383 107.818 31.59 107.538 32.64V43H103.723V30.925C103.723 30.365 103.618 29.91 103.408 29.56C103.198 29.21 102.813 28.8133 102.253 28.37L104.808 26.13C106.185 26.8067 107.025 27.7633 107.328 29C108.495 27.0867 110.163 26.13 112.333 26.13C113.547 26.13 114.562 26.41 115.378 26.97C116.195 27.53 116.755 28.3467 117.058 29.42C117.478 28.4167 118.132 27.6233 119.018 27.04C119.905 26.4333 120.978 26.13 122.238 26.13ZM140.661 40.48C141.571 40.48 142.329 40.3633 142.936 40.13C143.566 39.8733 144.196 39.4417 144.826 38.835L147.101 40.935C146.401 41.7517 145.526 42.37 144.476 42.79C143.426 43.21 142.131 43.42 140.591 43.42C138.071 43.42 136.204 42.9067 134.991 41.88C133.778 40.83 133.171 39.2317 133.171 37.085V31.975C133.171 30.1783 133.801 28.7667 135.061 27.74C136.344 26.69 138.094 26.165 140.311 26.165C142.574 26.165 144.336 26.725 145.596 27.845C146.856 28.9417 147.486 30.5283 147.486 32.605C147.486 33.5617 147.393 34.3083 147.206 34.845C147.019 35.3817 146.681 35.7783 146.191 36.035C145.701 36.2683 144.978 36.385 144.021 36.385H136.951V37.085C136.951 39.3483 138.188 40.48 140.661 40.48ZM140.276 29.07C139.249 29.07 138.433 29.3617 137.826 29.945C137.243 30.5283 136.951 31.2983 136.951 32.255V33.76H141.956C142.609 33.76 143.064 33.655 143.321 33.445C143.578 33.2117 143.706 32.815 143.706 32.255C143.706 31.2283 143.403 30.4467 142.796 29.91C142.213 29.35 141.373 29.07 140.276 29.07ZM156.288 29.525V37.295C156.288 38.2983 156.463 39.0217 156.813 39.465C157.163 39.9083 157.735 40.13 158.528 40.13H161.048V43.07H158.528C156.335 43.07 154.771 42.6383 153.838 41.775C152.928 40.8883 152.473 39.395 152.473 37.295V23.575C152.473 23.015 152.368 22.56 152.158 22.21C151.948 21.86 151.563 21.4633 151.003 21.02L153.558 18.78C154.585 19.3167 155.296 19.935 155.693 20.635C156.09 21.3117 156.288 22.2683 156.288 23.505V26.55H161.048V29.525H156.288ZM175.524 26.13C177.274 26.13 178.616 26.6317 179.549 27.635C180.506 28.615 180.984 30.0033 180.984 31.8V43H177.169V32.185C177.169 31.2283 176.924 30.4817 176.434 29.945C175.968 29.385 175.303 29.105 174.439 29.105C173.436 29.105 172.608 29.4317 171.954 30.085C171.301 30.7383 170.799 31.6017 170.449 32.675V43H166.634V21.825C166.634 21.2417 166.529 20.775 166.319 20.425C166.109 20.075 165.724 19.69 165.164 19.27L167.719 17.03C168.746 17.5667 169.458 18.185 169.854 18.885C170.251 19.5617 170.449 20.5183 170.449 21.755V28.755C170.963 27.9383 171.639 27.2967 172.479 26.83C173.343 26.3633 174.358 26.13 175.524 26.13ZM194.101 43.42C191.768 43.42 189.959 42.86 188.676 41.74C187.393 40.62 186.751 39.0333 186.751 36.98V32.57C186.751 30.5167 187.393 28.93 188.676 27.81C189.959 26.69 191.768 26.13 194.101 26.13C196.458 26.13 198.278 26.69 199.561 27.81C200.844 28.93 201.486 30.5167 201.486 32.57V36.98C201.486 39.0333 200.844 40.62 199.561 41.74C198.278 42.86 196.458 43.42 194.101 43.42ZM194.101 40.445C195.244 40.445 196.119 40.1533 196.726 39.57C197.356 38.9633 197.671 38.1 197.671 36.98V32.57C197.671 31.45 197.356 30.5983 196.726 30.015C196.119 29.4083 195.244 29.105 194.101 29.105C192.981 29.105 192.106 29.4083 191.476 30.015C190.869 30.5983 190.566 31.45 190.566 32.57V36.98C190.566 38.1 190.869 38.9633 191.476 39.57C192.106 40.1533 192.981 40.445 194.101 40.445ZM222.783 38.625C222.783 39.185 222.888 39.64 223.098 39.99C223.308 40.34 223.693 40.7367 224.253 41.18L221.733 43.42C220.473 42.7667 219.656 41.8333 219.283 40.62C218.676 41.5533 217.918 42.2533 217.008 42.72C216.121 43.1867 215.036 43.42 213.753 43.42C211.56 43.42 209.81 42.6967 208.503 41.25C207.22 39.78 206.578 37.8083 206.578 35.335V34.215C206.578 32.6983 206.858 31.3333 207.418 30.12C207.978 28.8833 208.795 27.915 209.868 27.215C210.941 26.4917 212.236 26.13 213.753 26.13C216.063 26.13 217.801 26.8883 218.968 28.405V21.825C218.968 21.265 218.863 20.81 218.653 20.46C218.443 20.11 218.058 19.7133 217.498 19.27L220.053 17.065C221.08 17.6017 221.791 18.22 222.188 18.92C222.585 19.5967 222.783 20.5417 222.783 21.755V38.625ZM218.968 32.29C218.338 30.1667 216.938 29.105 214.768 29.105C213.391 29.105 212.318 29.595 211.548 30.575C210.778 31.5317 210.393 32.745 210.393 34.215V35.335C210.393 36.805 210.778 38.03 211.548 39.01C212.318 39.9667 213.391 40.445 214.768 40.445C216.938 40.445 218.338 39.3833 218.968 37.26V32.29Z" fill="url(#paint0_linear_19_590)"/>
<defs>
<linearGradient id="paint0_linear_19_590" x1="133.957" y1="6" x2="7" y2="6" gradientUnits="userSpaceOnUse">
<stop stop-color="#2F323D"/>
<stop offset="1" stop-color="#FF7F0E"/>
</linearGradient>
</defs>
</svg>
