<?xml version="1.0" encoding="utf-8"?>
<!-- License: CC Attribution. Made by Carol Liao: https://dribbble.com/thecarolizer -->
<svg version="1.1" id="Uploaded to svgrepo.com" xmlns="http://www.w3.org/2000/svg" xmlns:xlink="http://www.w3.org/1999/xlink" 
	 width="24" height="24" viewBox="0 0 32 32" xml:space="preserve">
<style type="text/css">
	.hatch_een{fill:#265AA5;}
	.hatch_twee{fill:#FFC5BB;}
	.st0{fill:#333B3A;}
</style>
<g>
	<path class="hatch_twee" d="M26,19.967v1.414l-4.813,4.812l-0.707-0.707L26,19.967z M18.479,23.488l0.707,0.707L26,17.381v-1.414
		L18.479,23.488z M7,20.381l19-19V1h-1.033L7,18.967V20.381z M24.482,29.484l0.707,0.707l0.81-0.81v-1.414L24.482,29.484z
		 M22.481,27.486l0.707,0.707L26,25.381v-1.414L22.481,27.486z M7,26.967v1.414l19-19V7.967L7,26.967z M14.381,1h-1.414L7,6.967
		v1.414L14.381,1z M22.381,1h-1.414L7,14.967v1.414L22.381,1z M18.381,1h-1.414L7,10.967v1.414L18.381,1z M10.381,1H8.967L7,2.967
		v1.414L10.381,1z M7,22.967v1.414l19-19V3.967L7,22.967z M16.48,21.51l0.723,0.704l8.787-8.787l0.022-1.436L16.48,21.51z"/>
	<path class="hatch_een" d="M26,31l-9.512-9.5L7,31V1h19V31z M7,0C6.448,0,6,0.448,6,1v30c0,0.405,0.244,0.769,0.618,0.924
		C6.741,31.975,6.871,32,7,32c0.26,0,0.516-0.102,0.708-0.293l8.782-8.792l8.804,8.793C25.485,31.899,25.74,32,26,32
		c0.129,0,0.259-0.025,0.383-0.076C26.756,31.769,27,31.404,27,31V1c0-0.552-0.448-1-1-1H7z"/>
</g>
</svg>