<?xml version="1.0" encoding="utf-8"?>
<!-- License: CC Attribution. Made by Zlatko Najdenovski: https://www.figma.com/@zlat -->
<svg width="20px" height="20px" viewBox="0 0 32 32" fill="none" xmlns="http://www.w3.org/2000/svg">
<g clip-path="url(#clip0_901_997)">
<path d="M22 23L29 30C30.609 31.609 31 31 31 30V2C31 1.447 30.553 1 30 1H2C1.447 1 1 1.447 1 2V24C1 24.553 1.447 25 2 25H20M17 12.9912C17 12.4382 16.553 11.9912 16 11.9912C15.447 11.9912 15 12.4382 15 12.9912C15 13.5442 15.447 13.9912 16 13.9912C16.553 13.9912 17 13.5442 17 12.9912ZM23 12.9912C23 12.4382 22.553 11.9912 22 11.9912C21.447 11.9912 21 12.4382 21 12.9912C21 13.5442 21.447 13.9912 22 13.9912C22.553 13.9912 23 13.5442 23 12.9912ZM11 12.9912C11 12.4382 10.553 11.9912 10 11.9912C9.447 11.9912 9 12.4382 9 12.9912C9 13.5442 9.447 13.9912 10 13.9912C10.553 13.9912 11 13.5442 11 12.9912Z" stroke="#000000" stroke-width="2" stroke-linecap="round" stroke-linejoin="round"/>
</g>
<defs>
<clipPath id="clip0_901_997">
<rect width="32" height="32" fill="white"/>
</clipPath>
</defs>
</svg>