<?xml version="1.0" encoding="utf-8"?>

<!-- License: MIT. Made by jtblabs: https://github.com/jtblabs/jtb-icons -->
<svg fill="#000000" width="18px" height="18px" viewBox="0 0 32 32" version="1.1" xmlns="http://www.w3.org/2000/svg">
<title>birthday-cake</title>
<path d="M28 14.25h-3.25v-3.25c0-0.414-0.336-0.75-0.75-0.75s-0.75 0.336-0.75 0.75v0 3.25h-6.5v-3.25c0-0.414-0.336-0.75-0.75-0.75s-0.75 0.336-0.75 0.75v0 3.25h-6.5v-3.25c0-0.414-0.336-0.75-0.75-0.75s-0.75 0.336-0.75 0.75v0 3.25h-3.25c-1.518 0.002-2.748 1.232-2.75 2.75v11c0.002 1.518 1.232 2.748 2.75 2.75h24c1.518-0.002 2.748-1.232 2.75-2.75v-11c-0.002-1.518-1.232-2.748-2.75-2.75h-0zM4 15.75h3.25v2.25c0 0.414 0.336 0.75 0.75 0.75s0.75-0.336 0.75-0.75v0-2.25h6.5v2.25c0 0.414 0.336 0.75 0.75 0.75s0.75-0.336 0.75-0.75v0-2.25h6.5v2.25c0 0.414 0.336 0.75 0.75 0.75s0.75-0.336 0.75-0.75v0-2.25h3.25c0.69 0.001 1.249 0.56 1.25 1.25v7.186l-2.719-2.719c-0.142-0.134-0.334-0.217-0.546-0.217-0.021 0-0.042 0.001-0.062 0.002l0.003-0c-0.231 0.023-0.429 0.148-0.549 0.329l-0.002 0.003c-1.664 2.514-3.309 3.809-4.824 3.66-2.324-0.188-3.852-3.52-3.866-3.553-0.121-0.262-0.382-0.441-0.685-0.441s-0.562 0.178-0.682 0.435l-0.002 0.005c-0.016 0.033-1.526 3.322-3.843 3.518-1.497 0.090-3.172-1.129-4.852-3.627-0.123-0.182-0.32-0.305-0.547-0.328l-0.003-0c-0.021-0.002-0.045-0.003-0.070-0.003-0.208 0-0.396 0.083-0.533 0.218l-2.72 2.72v-7.187c0.001-0.69 0.56-1.249 1.25-1.25h0zM28 29.25h-24c-0.69-0.001-1.249-0.56-1.25-1.25v-1.691l3.15-3.151c1.867 2.516 3.791 3.699 5.704 3.543 1.903-0.366 3.477-1.538 4.377-3.14l0.017-0.032c0.918 1.654 2.505 2.842 4.386 3.204l0.040 0.006c0.111 0.008 0.223 0.014 0.334 0.014 2.307-0.29 4.245-1.649 5.327-3.556l0.018-0.035 3.147 3.148v1.69c-0.001 0.69-0.56 1.249-1.25 1.25h-0zM7.991 8.75c1.693-0.040 3.073-1.333 3.249-2.985l0.001-0.015c0-1.132-1.883-3.35-2.692-4.251-0.138-0.153-0.336-0.249-0.558-0.249h-0.001c-0.222 0-0.421 0.097-0.558 0.25l-0.001 0.001c-0.804 0.9-2.673 3.118-2.673 4.249 0.172 1.663 1.544 2.956 3.228 3l0.004 0zM7.993 3.148c0.699 0.744 1.284 1.605 1.723 2.549l0.025 0.060c-0.173 0.833-0.883 1.456-1.746 1.493l-0.004 0c-0.86-0.040-1.565-0.661-1.73-1.478l-0.002-0.012c0.457-1.005 1.039-1.867 1.739-2.617l-0.005 0.006zM15.991 8.75c1.693-0.040 3.072-1.333 3.248-2.985l0.001-0.015c0-1.132-1.882-3.35-2.691-4.251-0.138-0.153-0.336-0.249-0.558-0.249h-0.001c-0.222 0-0.421 0.097-0.558 0.25l-0.001 0.001c-0.804 0.9-2.673 3.118-2.673 4.249 0.172 1.663 1.544 2.956 3.228 3l0.004 0zM15.993 3.148c0.699 0.744 1.284 1.605 1.722 2.549l0.025 0.060c-0.135 0.851-0.863 1.493-1.741 1.493-0.877 0-1.604-0.641-1.739-1.48l-0.001-0.010c0.457-1.005 1.039-1.867 1.739-2.617l-0.005 0.006zM23.99 8.75c1.694-0.040 3.073-1.333 3.249-2.985l0.001-0.015c0-1.132-1.883-3.35-2.691-4.251-0.138-0.153-0.337-0.249-0.559-0.249h-0.002c-0.222 0.001-0.421 0.097-0.558 0.25l-0.001 0.001c-0.803 0.901-2.67 3.118-2.67 4.249 0.171 1.663 1.543 2.955 3.226 3l0.004 0zM23.992 3.149c0.699 0.744 1.285 1.605 1.723 2.548l0.025 0.060c-0.134 0.851-0.862 1.493-1.74 1.493-0.877 0-1.604-0.641-1.739-1.48l-0.001-0.010c0.456-1.004 1.037-1.867 1.737-2.616l-0.005 0.005z"></path>
</svg>
