<?xml version="1.0" encoding="utf-8"?>
<!-- License: CC Attribution. Made by Amir Baqian: https://dribbble.com/amirbaqian -->
<svg width="25" height="25" viewBox="0 0 24 24" fill="none" xmlns="http://www.w3.org/2000/svg">
<path d="M15.0496 3.35288C17.827 4.00437 19.9956 6.17301 20.6471 8.95043C21.1176 10.9563 21.1176 13.0437 20.6471 15.0496C19.9956 17.827 17.827 19.9956 15.0496 20.6471C13.0437 21.1176 10.9563 21.1176 8.95044 20.6471C6.17301 19.9956 4.00437 17.827 3.35288 15.0496C2.88237 13.0437 2.88237 10.9563 3.35288 8.95044C4.00437 6.17301 6.173 4.00437 8.95043 3.35288C10.9563 2.88237 13.0437 2.88237 15.0496 3.35288Z" stroke="#FF3501" stroke-width="1.5"/>
<path d="M15.0496 3.35288C13.0437 2.88237 10.9563 2.88237 8.95043 3.35288C6.173 4.00437 4.00437 6.17301 3.35288 8.95044C2.88237 10.9563 2.88237 13.0437 3.35288 15.0496C4.00437 17.827 6.17301 19.9956 8.95044 20.6471C10.9563 21.1176 13.0437 21.1176 15.0496 20.6471C17.827 19.9956 19.9956 17.827 20.6471 15.0496" stroke="#363853" stroke-width="1.5" stroke-linecap="round"/>
<path d="M13.7678 10.2322L10.2322 13.7677M13.7678 13.7677L10.2322 10.2322" stroke="#FF3501" stroke-width="1.5" stroke-linecap="round"/>
</svg>