<?xml version="1.0" encoding="utf-8"?>
<!-- License: CC Attribution. Made by Amir Baqian: https://dribbble.com/amirbaqian -->
<svg width="24" height="24" viewBox="0 0 24 24" fill="none" xmlns="http://www.w3.org/2000/svg">
<path d="M8.95043 20.6471C6.17301 19.9956 4.00437 17.827 3.35287 15.0496C2.88237 13.0437 2.88237 10.9563 3.35287 8.95043C4.00437 6.17301 6.17301 4.00437 8.95043 3.35288C10.9563 2.88237 13.0437 2.88237 15.0496 3.35287C17.827 4.00437 19.9956 6.173 20.6471 8.95043C21.1176 10.9563 21.1176 13.0437 20.6471 15.0496C19.9956 17.827 17.827 19.9956 15.0496 20.6471C13.0437 21.1176 10.9563 21.1176 8.95043 20.6471Z" stroke="#ff7f0e" stroke-width="1.5"/>
<path d="M8.95043 20.6471C10.9563 21.1176 13.0437 21.1176 15.0496 20.6471C17.827 19.9956 19.9956 17.827 20.6471 15.0496C21.1176 13.0437 21.1176 10.9563 20.6471 8.95043C19.9956 6.173 17.827 4.00437 15.0496 3.35288C13.0437 2.88237 10.9563 2.88237 8.95043 3.35288C6.173 4.00437 4.00437 6.17301 3.35287 8.95043" stroke="#363853" stroke-width="1.5" stroke-linecap="round"/>
<path d="M12 15.5V11.5" stroke="#ff7f0e" stroke-width="1.5" stroke-linecap="round" stroke-linejoin="round"/>
<circle cx="12" cy="9" r="0.5" stroke="#ff7f0e" stroke-linecap="round" stroke-linejoin="round"/>
</svg>