<svg width="60" height="60" viewBox="0 0 60 60" fill="none" xmlns="http://www.w3.org/2000/svg">
<g clip-path="url(#clip0_19_590)">
<path d="M13.675 41.42C12.065 41.42 10.7 41.2567 9.58 40.93C8.48333 40.58 7.53833 40.0783 6.745 39.425C5.95167 38.7717 5.14667 37.9083 4.33 36.835L7.13 34.49C8.08667 35.82 9.04333 36.765 10 37.325C10.98 37.885 12.1933 38.165 13.64 38.165C15.6 38.165 17.0583 37.85 18.015 37.22C18.9717 36.59 19.45 35.6217 19.45 34.315C19.45 33.5917 19.24 33.0083 18.82 32.565C18.4233 32.0983 17.7117 31.7017 16.685 31.375C15.6817 31.025 14.1767 30.64 12.17 30.22C9.88333 29.7533 8.18 28.9367 7.06 27.77C5.94 26.6033 5.38 25.0517 5.38 23.115C5.38 21.6917 5.74167 20.455 6.465 19.405C7.18833 18.3317 8.215 17.515 9.545 16.955C10.875 16.3717 12.4383 16.08 14.235 16.08C16.4283 16.08 18.2133 16.4183 19.59 17.095C20.99 17.7717 22.0983 18.775 22.915 20.105L20.185 22.345C19.275 21.295 18.3767 20.5367 17.49 20.07C16.6267 19.58 15.53 19.335 14.2 19.335C12.7067 19.335 11.5517 19.6733 10.735 20.35C9.91833 21.0033 9.51 21.9367 9.51 23.15C9.51 24.2467 9.965 25.0867 10.875 25.67C11.785 26.23 13.045 26.685 14.655 27.035C16.7317 27.455 18.3883 27.9217 19.625 28.435C20.8617 28.925 21.83 29.6367 22.53 30.57C23.23 31.5033 23.58 32.7517 23.58 34.315C23.58 39.0517 20.2783 41.42 13.675 41.42ZM29.8417 16.5H32.0467C33.1434 16.5 34.0301 16.6517 34.7067 16.955C35.3834 17.2583 35.9784 17.7367 36.4917 18.39C37.0051 19.0433 37.5767 20 38.2067 21.26L41.2867 27.315L44.3667 21.26C44.9967 20 45.5684 19.0433 46.0817 18.39C46.5951 17.7367 47.1901 17.2583 47.8667 16.955C48.5434 16.6517 49.4301 16.5 50.5267 16.5H52.7317V41H48.9517V20.77C48.6484 20.7933 48.3801 20.9333 48.1467 21.19C47.9367 21.4233 47.6801 21.8317 47.3767 22.415L41.2867 33.755L35.1967 22.415C34.8701 21.8083 34.6017 21.3883 34.3917 21.155C34.1817 20.8983 33.9251 20.7583 33.6217 20.735V41H29.8417V16.5Z" fill="url(#paint0_linear_19_590)"/>
</g>
<defs>
<linearGradient id="paint0_linear_19_590" x1="37.4681" y1="4" x2="3" y2="4" gradientUnits="userSpaceOnUse">
<stop stop-color="#2F323D"/>
<stop offset="1" stop-color="#FF7F0E"/>
</linearGradient>
<clipPath id="clip0_19_590">
<rect width="60" height="60" rx="30" fill="white"/>
</clipPath>
</defs>
</svg>
